<svg xmlns="http://www.w3.org/2000/svg" viewBox="0 0 512 512" fill="none">
  <defs>
    <!-- Background gradient: deep night sky -->
    <linearGradient id="sky" x1="256" y1="0" x2="256" y2="512" gradientUnits="userSpaceOnUse">
      <stop offset="0%" stop-color="#06060f"/>
      <stop offset="40%" stop-color="#0d1125"/>
      <stop offset="70%" stop-color="#141a3a"/>
      <stop offset="100%" stop-color="#1a1f40"/>
    </linearGradient>

    <!-- Pyramid left face -->
    <linearGradient id="pyr-left" x1="110" y1="200" x2="256" y2="390" gradientUnits="userSpaceOnUse">
      <stop offset="0%" stop-color="#c49a1a"/>
      <stop offset="40%" stop-color="#a8820f"/>
      <stop offset="100%" stop-color="#8a6a08"/>
    </linearGradient>

    <!-- Pyramid right face -->
    <linearGradient id="pyr-right" x1="256" y1="160" x2="400" y2="390" gradientUnits="userSpaceOnUse">
      <stop offset="0%" stop-color="#f0cf55"/>
      <stop offset="35%" stop-color="#e2b930"/>
      <stop offset="100%" stop-color="#c9a01c"/>
    </linearGradient>

    <!-- Desert sand -->
    <linearGradient id="sand" x1="256" y1="380" x2="256" y2="440" gradientUnits="userSpaceOnUse">
      <stop offset="0%" stop-color="#2a2040"/>
      <stop offset="100%" stop-color="#1a1530"/>
    </linearGradient>

    <!-- Apex glow -->
    <radialGradient id="apex-glow" cx="256" cy="130" r="100" gradientUnits="userSpaceOnUse">
      <stop offset="0%" stop-color="#ffeea0" stop-opacity="0.5"/>
      <stop offset="40%" stop-color="#f0c847" stop-opacity="0.15"/>
      <stop offset="100%" stop-color="#f0c847" stop-opacity="0"/>
    </radialGradient>

    <!-- Star shimmer -->
    <radialGradient id="star-bright" cx="0.5" cy="0.5" r="0.5">
      <stop offset="0%" stop-color="#fff" stop-opacity="1"/>
      <stop offset="40%" stop-color="#cde" stop-opacity="0.6"/>
      <stop offset="100%" stop-color="#fff" stop-opacity="0"/>
    </radialGradient>

    <!-- Clip for rounded square -->
    <clipPath id="clip">
      <rect width="512" height="512" rx="108"/>
    </clipPath>
  </defs>

  <g clip-path="url(#clip)">
    <!-- Night sky background -->
    <rect width="512" height="512" fill="url(#sky)"/>

    <!-- Stars — scattered across the sky -->
    <!-- Bright stars -->
    <circle cx="80" cy="60" r="2.2" fill="#fff" opacity="0.9"/>
    <circle cx="80" cy="60" r="5" fill="#fff" opacity="0.12"/>
    <circle cx="430" cy="90" r="2" fill="#fff" opacity="0.85"/>
    <circle cx="430" cy="90" r="4.5" fill="#fff" opacity="0.1"/>
    <circle cx="150" cy="130" r="1.8" fill="#fff" opacity="0.8"/>
    <circle cx="370" cy="50" r="1.5" fill="#fff" opacity="0.75"/>
    <circle cx="370" cy="50" r="4" fill="#fff" opacity="0.08"/>
    <circle cx="60" cy="180" r="1.6" fill="#fff" opacity="0.7"/>
    <circle cx="460" cy="200" r="1.4" fill="#fff" opacity="0.65"/>
    <circle cx="320" cy="35" r="2.4" fill="#ffe8a0" opacity="0.9"/>
    <circle cx="320" cy="35" r="6" fill="#ffe8a0" opacity="0.1"/>

    <!-- Dim stars -->
    <circle cx="45" cy="110" r="1" fill="#fff" opacity="0.4"/>
    <circle cx="120" cy="45" r="0.9" fill="#fff" opacity="0.35"/>
    <circle cx="200" cy="80" r="1.1" fill="#fff" opacity="0.45"/>
    <circle cx="290" cy="60" r="0.8" fill="#fff" opacity="0.3"/>
    <circle cx="410" cy="140" r="1" fill="#fff" opacity="0.35"/>
    <circle cx="470" cy="50" r="0.9" fill="#fff" opacity="0.4"/>
    <circle cx="35" cy="250" r="0.8" fill="#fff" opacity="0.3"/>
    <circle cx="480" cy="280" r="0.9" fill="#fff" opacity="0.25"/>
    <circle cx="100" cy="210" r="0.7" fill="#fff" opacity="0.3"/>
    <circle cx="440" cy="170" r="0.7" fill="#fff" opacity="0.28"/>
    <circle cx="170" cy="170" r="0.6" fill="#fff" opacity="0.25"/>
    <circle cx="350" cy="100" r="0.8" fill="#fff" opacity="0.32"/>
    <circle cx="230" cy="50" r="0.7" fill="#fff" opacity="0.28"/>
    <circle cx="490" cy="120" r="0.6" fill="#fff" opacity="0.22"/>
    <circle cx="25" cy="40" r="0.7" fill="#fff" opacity="0.3"/>
    <circle cx="500" cy="30" r="0.6" fill="#fff" opacity="0.25"/>

    <!-- Desert ground -->
    <path d="M0 395 Q80 385 160 392 Q256 400 340 390 Q420 383 512 395 L512 512 L0 512 Z" fill="url(#sand)"/>
    <!-- Sand dune highlights -->
    <path d="M0 398 Q80 388 160 395 Q256 403 340 393 Q420 386 512 398 L512 400 Q420 388 340 395 Q256 405 160 397 Q80 390 0 400 Z" fill="#3a2d55" opacity="0.3"/>

    <!-- Pyramid shadow on ground -->
    <path d="M130 395 L256 395 L400 395 L460 420 L80 420 Z" fill="#0a0812" opacity="0.4"/>

    <!-- PYRAMID: Left face (shadow side) -->
    <path d="M256 140 L118 395 L256 395 Z" fill="url(#pyr-left)"/>

    <!-- PYRAMID: Right face (lit side) -->
    <path d="M256 140 L394 395 L256 395 Z" fill="url(#pyr-right)"/>

    <!-- Stone block lines — left face -->
    <!-- Horizontal courses -->
    <line x1="250" y1="170" x2="256" y2="170" stroke="#9a7a0a" stroke-opacity="0.25" stroke-width="0.7"/>
    <line x1="232" y1="200" x2="256" y2="200" stroke="#9a7a0a" stroke-opacity="0.3" stroke-width="0.7"/>
    <line x1="212" y1="230" x2="256" y2="230" stroke="#9a7a0a" stroke-opacity="0.3" stroke-width="0.7"/>
    <line x1="192" y1="260" x2="256" y2="260" stroke="#9a7a0a" stroke-opacity="0.3" stroke-width="0.7"/>
    <line x1="172" y1="290" x2="256" y2="290" stroke="#9a7a0a" stroke-opacity="0.28" stroke-width="0.7"/>
    <line x1="152" y1="320" x2="256" y2="320" stroke="#9a7a0a" stroke-opacity="0.25" stroke-width="0.7"/>
    <line x1="138" y1="340" x2="256" y2="340" stroke="#9a7a0a" stroke-opacity="0.22" stroke-width="0.7"/>
    <line x1="128" y1="360" x2="256" y2="360" stroke="#9a7a0a" stroke-opacity="0.2" stroke-width="0.7"/>
    <line x1="122" y1="378" x2="256" y2="378" stroke="#9a7a0a" stroke-opacity="0.18" stroke-width="0.7"/>

    <!-- Vertical joints — left face -->
    <line x1="245" y1="170" x2="230" y2="200" stroke="#9a7a0a" stroke-opacity="0.15" stroke-width="0.5"/>
    <line x1="240" y1="200" x2="220" y2="230" stroke="#9a7a0a" stroke-opacity="0.18" stroke-width="0.5"/>
    <line x1="225" y1="200" x2="205" y2="230" stroke="#9a7a0a" stroke-opacity="0.15" stroke-width="0.5"/>
    <line x1="235" y1="230" x2="215" y2="260" stroke="#9a7a0a" stroke-opacity="0.18" stroke-width="0.5"/>
    <line x1="218" y1="230" x2="198" y2="260" stroke="#9a7a0a" stroke-opacity="0.15" stroke-width="0.5"/>
    <line x1="245" y1="260" x2="225" y2="290" stroke="#9a7a0a" stroke-opacity="0.16" stroke-width="0.5"/>
    <line x1="220" y1="260" x2="200" y2="290" stroke="#9a7a0a" stroke-opacity="0.15" stroke-width="0.5"/>
    <line x1="200" y1="260" x2="180" y2="290" stroke="#9a7a0a" stroke-opacity="0.13" stroke-width="0.5"/>
    <line x1="240" y1="290" x2="220" y2="320" stroke="#9a7a0a" stroke-opacity="0.14" stroke-width="0.5"/>
    <line x1="215" y1="290" x2="195" y2="320" stroke="#9a7a0a" stroke-opacity="0.13" stroke-width="0.5"/>
    <line x1="190" y1="290" x2="170" y2="320" stroke="#9a7a0a" stroke-opacity="0.12" stroke-width="0.5"/>
    <line x1="230" y1="340" x2="215" y2="360" stroke="#9a7a0a" stroke-opacity="0.12" stroke-width="0.5"/>
    <line x1="200" y1="340" x2="185" y2="360" stroke="#9a7a0a" stroke-opacity="0.11" stroke-width="0.5"/>
    <line x1="170" y1="340" x2="158" y2="360" stroke="#9a7a0a" stroke-opacity="0.1" stroke-width="0.5"/>

    <!-- Stone block lines — right face -->
    <!-- Horizontal courses -->
    <line x1="256" y1="170" x2="262" y2="170" stroke="#dab220" stroke-opacity="0.2" stroke-width="0.7"/>
    <line x1="256" y1="200" x2="280" y2="200" stroke="#dab220" stroke-opacity="0.25" stroke-width="0.7"/>
    <line x1="256" y1="230" x2="300" y2="230" stroke="#dab220" stroke-opacity="0.25" stroke-width="0.7"/>
    <line x1="256" y1="260" x2="320" y2="260" stroke="#dab220" stroke-opacity="0.25" stroke-width="0.7"/>
    <line x1="256" y1="290" x2="340" y2="290" stroke="#dab220" stroke-opacity="0.22" stroke-width="0.7"/>
    <line x1="256" y1="320" x2="360" y2="320" stroke="#dab220" stroke-opacity="0.2" stroke-width="0.7"/>
    <line x1="256" y1="340" x2="372" y2="340" stroke="#dab220" stroke-opacity="0.18" stroke-width="0.7"/>
    <line x1="256" y1="360" x2="382" y2="360" stroke="#dab220" stroke-opacity="0.16" stroke-width="0.7"/>
    <line x1="256" y1="378" x2="390" y2="378" stroke="#dab220" stroke-opacity="0.14" stroke-width="0.7"/>

    <!-- Vertical joints — right face -->
    <line x1="263" y1="170" x2="275" y2="200" stroke="#dab220" stroke-opacity="0.12" stroke-width="0.5"/>
    <line x1="270" y1="200" x2="285" y2="230" stroke="#dab220" stroke-opacity="0.14" stroke-width="0.5"/>
    <line x1="265" y1="230" x2="278" y2="260" stroke="#dab220" stroke-opacity="0.13" stroke-width="0.5"/>
    <line x1="282" y1="230" x2="300" y2="260" stroke="#dab220" stroke-opacity="0.12" stroke-width="0.5"/>
    <line x1="270" y1="260" x2="288" y2="290" stroke="#dab220" stroke-opacity="0.14" stroke-width="0.5"/>
    <line x1="295" y1="260" x2="315" y2="290" stroke="#dab220" stroke-opacity="0.12" stroke-width="0.5"/>
    <line x1="280" y1="290" x2="300" y2="320" stroke="#dab220" stroke-opacity="0.12" stroke-width="0.5"/>
    <line x1="310" y1="290" x2="330" y2="320" stroke="#dab220" stroke-opacity="0.11" stroke-width="0.5"/>
    <line x1="290" y1="320" x2="308" y2="340" stroke="#dab220" stroke-opacity="0.1" stroke-width="0.5"/>
    <line x1="325" y1="320" x2="345" y2="340" stroke="#dab220" stroke-opacity="0.1" stroke-width="0.5"/>
    <line x1="300" y1="340" x2="315" y2="360" stroke="#dab220" stroke-opacity="0.09" stroke-width="0.5"/>
    <line x1="340" y1="340" x2="358" y2="360" stroke="#dab220" stroke-opacity="0.09" stroke-width="0.5"/>

    <!-- Center ridge highlight -->
    <line x1="256" y1="140" x2="256" y2="395" stroke="#ffd54f" stroke-opacity="0.12" stroke-width="1.2"/>

    <!-- Subtle ambient occlusion at base -->
    <path d="M118 395 L394 395 L394 400 L118 400 Z" fill="#0a0812" opacity="0.3"/>


    <!-- Small secondary pyramid in background (distance) -->
    <path d="M420 395 L455 340 L490 395 Z" fill="#1e1840" opacity="0.5"/>
    <path d="M455 340 L455 395 L420 395 Z" fill="#18143a" opacity="0.5"/>
    <path d="M455 340 L455 395 L490 395 Z" fill="#241c48" opacity="0.5"/>

    <!-- Tiny distant pyramid -->
    <path d="M50 395 L72 368 L94 395 Z" fill="#1a1538" opacity="0.4"/>
    <path d="M72 368 L72 395 L50 395 Z" fill="#151230" opacity="0.4"/>
    <path d="M72 368 L72 395 L94 395 Z" fill="#1e183e" opacity="0.4"/>
  </g>
</svg>
